<?xml version="1.0" encoding="UTF-8" standalone="no"?>
<!-- Created with Inkscape (http://www.inkscape.org/) -->

<svg
   xmlns:dc="http://purl.org/dc/elements/1.1/"
   xmlns:cc="http://creativecommons.org/ns#"
   xmlns:rdf="http://www.w3.org/1999/02/22-rdf-syntax-ns#"
   xmlns:svg="http://www.w3.org/2000/svg"
   xmlns="http://www.w3.org/2000/svg"
   xmlns:sodipodi="http://sodipodi.sourceforge.net/DTD/sodipodi-0.dtd"
   xmlns:inkscape="http://www.inkscape.org/namespaces/inkscape"
   width="64"
   height="64"
   id="svg3344"
   version="1.1"
   inkscape:version="0.91 r13725"
   viewBox="0 0 64 64"
   sodipodi:docname="Dash.svg"
   inkscape:export-filename="E:\Uczelnia\Semestr VII\Projektowanie Interfejsów\Ikony\XABY Skills\Dash.png"
   inkscape:export-xdpi="90"
   inkscape:export-ydpi="90">
  <defs
     id="defs3346">
    <marker
       inkscape:isstock="true"
       style="overflow:visible"
       id="marker4475"
       refX="0.0"
       refY="0.0"
       orient="auto"
       inkscape:stockid="Arrow1Lstart">
      <path
         transform="scale(0.8) translate(12.5,0)"
         style="fill-rule:evenodd;stroke:#000000;stroke-width:1pt;stroke-opacity:1;fill:#b3b3b3;fill-opacity:1"
         d="M 0.0,0.0 L 5.0,-5.0 L -12.5,0.0 L 5.0,5.0 L 0.0,0.0 z "
         id="path4477" />
    </marker>
    <filter
       inkscape:collect="always"
       style="color-interpolation-filters:sRGB"
       id="filter4154"
       x="-0.48"
       width="1.96"
       y="-0.48"
       height="1.96">
      <feGaussianBlur
         inkscape:collect="always"
         stdDeviation="12.654546"
         id="feGaussianBlur4156" />
    </filter>
  </defs>
  <sodipodi:namedview
     id="base"
     pagecolor="#ffffff"
     bordercolor="#666666"
     borderopacity="1.0"
     inkscape:pageopacity="0.0"
     inkscape:pageshadow="2"
     inkscape:zoom="7.7781746"
     inkscape:cx="38.810418"
     inkscape:cy="32.390542"
     inkscape:current-layer="layer1"
     showgrid="true"
     inkscape:document-units="px"
     inkscape:grid-bbox="true"
     showguides="true"
     inkscape:guide-bbox="true"
     inkscape:window-width="1366"
     inkscape:window-height="706"
     inkscape:window-x="-8"
     inkscape:window-y="-8"
     inkscape:window-maximized="1"
     inkscape:snap-smooth-nodes="true"
     inkscape:object-paths="true"
     inkscape:snap-intersection-paths="true"
     inkscape:object-nodes="true"
     inkscape:snap-midpoints="true"
     inkscape:snap-global="false">
    <sodipodi:guide
       position="32,32"
       orientation="0,1"
       id="guide4162"
       inkscape:label=""
       inkscape:color="rgb(0,0,255)" />
    <sodipodi:guide
       position="32,32"
       orientation="1,0"
       id="guide4164"
       inkscape:label=""
       inkscape:color="rgb(0,0,255)" />
  </sodipodi:namedview>
  <metadata
     id="metadata3349">
    <rdf:RDF>
      <cc:Work
         rdf:about="">
        <dc:format>image/svg+xml</dc:format>
        <dc:type
           rdf:resource="http://purl.org/dc/dcmitype/StillImage" />
        <dc:title />
      </cc:Work>
    </rdf:RDF>
  </metadata>
  <g
     inkscape:groupmode="layer"
     id="layer4"
     inkscape:label="Background Black"
     sodipodi:insensitive="true">
    <rect
       style="opacity:1;fill:#000000;fill-opacity:1;fill-rule:nonzero;stroke:none;stroke-width:5;stroke-linecap:butt;stroke-linejoin:miter;stroke-miterlimit:4;stroke-dasharray:none;stroke-dashoffset:0;stroke-opacity:1"
       id="rect4165"
       width="64"
       height="64"
       x="0"
       y="0" />
  </g>
  <g
     inkscape:groupmode="layer"
     id="layer3"
     inkscape:label="Background"
     sodipodi:insensitive="true">
    <rect
       style="opacity:1;fill:#803300;fill-opacity:1;fill-rule:nonzero;stroke:#000000;stroke-width:1.5;stroke-linecap:round;stroke-linejoin:round;stroke-miterlimit:4;stroke-dasharray:none;stroke-dashoffset:0;stroke-opacity:1;filter:url(#filter4154)"
       id="rect4507"
       width="63.272728"
       height="63.272728"
       x="0"
       y="0.72727275" />
  </g>
  <g
     id="layer1"
     inkscape:label="Human"
     inkscape:groupmode="layer"
     style="display:inline">
    <path
       style="fill:#ffffff;fill-opacity:1;fill-rule:evenodd;stroke:#803300;stroke-width:2;stroke-linecap:butt;stroke-linejoin:round;stroke-miterlimit:4;stroke-dasharray:none;stroke-opacity:1"
       d="m 40.519819,15.694589 c 0,0 -5.026084,-0.574205 -8.935175,3.607613 -3.181819,5.545455 -4.052973,7.687064 -4.052973,7.687064 l 4.456211,2.258799 c 0,0 0.707857,-2.283069 3.292481,-6.627191 3.363637,-2.818182 4.061181,-1.284467 4.061181,-1.284467 0,0 -2.231137,17.172636 -6.412955,24.990818 -2.181819,2 -5.284438,2.017724 -5.284438,2.017724 l -0.141928,5.13189 c 0,0 5.796578,-0.723348 9.160214,-3.814257 2.742904,-7.431132 4.844838,-12.851401 4.844838,-12.851401 l 3.898317,24.155853 4.898861,0.127017 c 0,0 -2.690327,-19.780909 -3.599418,-25.780909 -0.272727,-5.090909 1.155051,-9.924486 1.155051,-9.924486 0,0 3.147586,4.048312 5.602132,5.139221 4.727272,-1.181818 8.402915,-3.641194 8.402915,-3.641194 l -2.18176,-4.210512 c 0,0 -2.138061,1.306378 -5.410788,2.760923 -3.997999,-5.902156 -7.252683,-7.298327 -13.752766,-9.742505 z"
       id="path4150"
       inkscape:connector-curvature="0"
       sodipodi:nodetypes="cccccccccccccccccccc"
       inkscape:export-xdpi="90"
       inkscape:export-ydpi="90" />
    <ellipse
       style="opacity:1;fill:#ffffff;fill-opacity:1;fill-rule:nonzero;stroke:#803300;stroke-width:2;stroke-linecap:round;stroke-linejoin:round;stroke-miterlimit:4;stroke-dasharray:none;stroke-dashoffset:0;stroke-opacity:1"
       id="path4152"
       cx="48.210186"
       cy="10.170083"
       rx="5.665267"
       ry="5.3548865" />
  </g>
  <g
     inkscape:groupmode="layer"
     id="layer2"
     inkscape:label="Details"
     sodipodi:insensitive="true">
    <path
       style="fill:#ffffff;fill-rule:evenodd;stroke:#803300;stroke-width:2;stroke-linecap:butt;stroke-linejoin:round;stroke-miterlimit:4;stroke-dasharray:none;stroke-opacity:1"
       d="m 24.875799,9.0016063 c 0,0 -4.679363,-2.298216 -7.130446,-2.2982192 -2.451079,-1.2e-6 -4.73487,1.9180945 -7.13046,2.2982192 C 8.2192917,9.3817302 3.2149886,7.2779436 3.2149886,7.2779436 L 3.069977,13.752379 c 0,0 5.0042986,2.103797 7.399891,1.723669 2.395599,-0.380128 4.679387,-2.298224 7.130467,-2.298224 2.45108,1e-6 7.130452,2.298224 7.130452,2.298224 z"
       id="path4163"
       inkscape:connector-curvature="0"
       sodipodi:nodetypes="czzcczzcc" />
    <path
       style="fill:#ffffff;fill-rule:evenodd;stroke:#803300;stroke-width:2;stroke-linecap:butt;stroke-linejoin:round;stroke-miterlimit:4;stroke-dasharray:none;stroke-opacity:1"
       d="m 24.875799,22.914609 c 0,0 -4.679363,-2.298214 -7.130446,-2.298215 -2.451079,-2e-6 -4.73487,1.918094 -7.13046,2.298215 -2.3956013,0.380124 -7.3999045,-1.723666 -7.3999045,-1.723666 l -0.1450116,6.474444 c 0,0 5.0042986,2.103787 7.3998911,1.723662 2.395599,-0.380129 4.679387,-2.298217 7.130467,-2.298217 2.45108,1e-6 7.130452,2.298217 7.130452,2.298217 z"
       id="path4163-7"
       inkscape:connector-curvature="0"
       sodipodi:nodetypes="czzcczzcc" />
    <path
       style="fill:#ffffff;fill-rule:evenodd;stroke:#803300;stroke-width:2;stroke-linecap:butt;stroke-linejoin:round;stroke-miterlimit:4;stroke-dasharray:none;stroke-opacity:1"
       d="m 24.875799,36.827618 c 0,0 -4.679363,-2.298232 -7.130446,-2.298233 -2.451079,0 -4.73487,1.918103 -7.13046,2.298233 -2.3956014,0.380121 -7.3999046,-1.723675 -7.3999046,-1.723675 l -0.1450116,6.474442 c 0,0 5.0042987,2.103792 7.3998912,1.723661 2.395599,-0.380124 4.679387,-2.298213 7.130467,-2.298213 2.45108,10e-7 7.130452,2.298213 7.130452,2.298213 z"
       id="path4163-9"
       inkscape:connector-curvature="0"
       sodipodi:nodetypes="czzcczzcc" />
    <path
       style="fill:#ffffff;fill-rule:evenodd;stroke:#803300;stroke-width:2;stroke-linecap:butt;stroke-linejoin:round;stroke-miterlimit:4;stroke-dasharray:none;stroke-opacity:1"
       d="m 24.875799,50.740616 c 0,0 -4.679363,-2.298234 -7.130446,-2.298235 -2.451079,0 -4.73487,1.918102 -7.13046,2.298235 -2.3956014,0.380118 -7.3999046,-1.723672 -7.3999046,-1.723672 l -0.1450116,6.47444 c 0,0 5.0042987,2.103789 7.3998912,1.72366 2.395599,-0.38012 4.679387,-2.298213 7.130467,-2.298213 2.45108,10e-7 7.130452,2.298213 7.130452,2.298213 z"
       id="path4163-9-4"
       inkscape:connector-curvature="0"
       sodipodi:nodetypes="czzcczzcc" />
  </g>
</svg>
